<?xml version="1.0" encoding="UTF-8"?>
<!-- Generator: visioncortex VTracer 0.6.3 -->
<svg version="1.1" xmlns="http://www.w3.org/2000/svg" width="512" height="512">
<path d="M0 0 C1.45 0 1.45 0 2.93 0.01 C17.26 0.05 31.21 0.56 45.31 3.31 C46.66 3.55 46.66 3.55 48.03 3.8 C107.84 14.62 165.35 48.68 202.31 97.31 C202.73 97.85 203.15 98.39 203.58 98.95 C211.26 108.94 218 119.4 224.31 130.31 C224.71 130.99 225.1 131.67 225.51 132.36 C238.69 155.28 247.3 180.86 252.62 206.69 C252.77 207.4 252.92 208.11 253.07 208.84 C256.06 224.48 256.69 240.12 256.62 256 C256.62 257.45 256.62 257.45 256.62 258.93 C256.57 273.26 256.07 287.21 253.31 301.31 C253.15 302.21 252.99 303.11 252.82 304.03 C241.67 365.66 206 424.16 155.31 461.31 C154.46 461.95 154.46 461.95 153.59 462.6 C144.84 469.12 135.79 474.92 126.31 480.31 C125.68 480.68 125.05 481.04 124.4 481.42 C101.38 494.59 75.86 503.28 49.94 508.62 C49.23 508.77 48.52 508.92 47.78 509.07 C32.14 512.06 16.51 512.69 0.62 512.62 C-0.34 512.62 -1.31 512.62 -2.31 512.62 C-16.64 512.57 -30.59 512.07 -44.69 509.31 C-45.58 509.15 -46.48 508.99 -47.41 508.82 C-107.22 498 -164.73 463.94 -201.69 415.31 C-202.1 414.77 -202.52 414.23 -202.95 413.68 C-210.63 403.68 -217.38 393.22 -223.69 382.31 C-224.08 381.64 -224.48 380.96 -224.88 380.26 C-238.06 357.34 -246.67 331.77 -252 305.94 C-252.15 305.23 -252.29 304.52 -252.45 303.78 C-255.43 288.14 -256.06 272.51 -256 256.62 C-256 255.66 -256 254.69 -255.99 253.69 C-255.95 239.36 -255.44 225.41 -252.69 211.31 C-252.45 209.97 -252.45 209.97 -252.2 208.59 C-241.38 148.78 -207.32 91.27 -158.69 54.31 C-158.15 53.9 -157.61 53.48 -157.05 53.05 C-147.06 45.37 -136.6 38.62 -125.69 32.31 C-125.01 31.92 -124.33 31.52 -123.64 31.12 C-100.72 17.94 -75.14 9.33 -49.31 4 C-48.6 3.85 -47.89 3.71 -47.16 3.55 C-31.52 0.57 -15.88 -0.06 0 0 Z " fill="#497AFE" transform="translate(255.6875,-0.3125)"/>
<path d="M0 0 C17.22 -0.93 34.44 -1.86 52.19 -2.81 C57.52 -3.22 62.85 -3.63 68.35 -4.05 C93.03 -5.2 113.94 -2.03 132.97 14.84 C150.99 31.47 158 49.07 159.18 73.39 C159.8 90.9 158.74 108.31 157.81 125.81 C156.88 150.62 155.96 175.44 155 201 C103.85 201 52.7 201 0 201 C0 134.67 0 68.34 0 0 Z " fill="#FEC201" transform="translate(241,204)"/>
<path d="M0 0 C64.93 -3.5 64.93 -3.5 82.52 -2.71 C84.31 -2.63 84.31 -2.63 86.14 -2.55 C109.6 -1.31 125.96 3.4 142 20.93 C160.01 42.5 158.99 70.71 157.01 97.28 C156.45 103.53 155.71 109.76 155 116 C139.82 116 124.64 116 109 116 C109 144.05 109 172.1 109 201 C73.03 201 37.06 201 0 201 C0 134.67 0 68.34 0 0 Z " fill="#F8FAFD" transform="translate(132,88)"/>
<path d="M0 0 C7.88 6.75 7.88 6.75 11.02 9.87 C11.74 10.58 12.46 11.29 13.2 12.02 C13.96 12.78 14.73 13.54 15.52 14.33 C16.35 15.15 17.18 15.98 18.04 16.83 C20.33 19.1 22.62 21.37 24.9 23.64 C26.87 25.6 28.84 27.55 30.81 29.5 C49.45 47.98 68.05 66.51 86.64 85.04 C89.06 87.45 91.47 89.85 93.89 92.26 C94.49 92.86 95.09 93.46 95.71 94.08 C105.45 103.78 115.21 113.47 124.98 123.16 C135.02 133.1 145.03 143.07 155.03 153.05 C160.65 158.66 166.27 164.25 171.91 169.82 C176.71 174.56 181.49 179.32 186.26 184.1 C188.69 186.54 191.12 188.97 193.58 191.38 C196.25 193.99 198.88 196.64 201.5 199.29 C202.28 200.05 203.07 200.8 203.87 201.58 C208.86 206.71 208.86 206.71 209.27 210.44 C208.85 214.71 207.68 218.56 205.88 222.46 C205.45 223.42 205.01 224.37 204.56 225.36 C204.09 226.35 203.61 227.35 203.12 228.38 C202.63 229.43 202.14 230.48 201.63 231.56 C184 268.55 157.16 302.69 124 327 C123.15 327.64 123.15 327.64 122.27 328.29 C113.53 334.8 104.48 340.61 95 346 C94.37 346.36 93.74 346.73 93.09 347.1 C80.34 354.4 66.82 360.05 53 365 C52.37 365.25 51.74 365.51 51.1 365.77 C49 366 49 366 47.04 364.66 C46.01 363.62 46.01 363.62 44.95 362.56 C44.15 361.77 43.36 360.98 42.54 360.17 C41.24 358.85 41.24 358.85 39.92 357.5 C39 356.59 38.08 355.67 37.14 354.73 C34.62 352.21 32.11 349.68 29.61 347.15 C27 344.51 24.37 341.88 21.74 339.25 C17.33 334.83 12.93 330.4 8.54 325.97 C2.33 319.71 -3.89 313.46 -10.12 307.22 C-14.42 302.9 -18.72 298.59 -23.02 294.27 C-24.06 293.22 -25.11 292.17 -26.15 291.12 C-29.58 287.67 -33.01 284.21 -36.43 280.76 C-37.74 279.44 -37.74 279.44 -39.08 278.1 C-39.86 277.31 -40.65 276.51 -41.46 275.7 C-42.15 275 -42.83 274.31 -43.54 273.59 C-45 272 -45 272 -45 271 C5.82 271 56.64 271 109 271 C109.74 246.17 110.49 221.34 111.25 195.75 C111.6 188.01 111.95 180.26 112.31 172.28 C113.6 129.92 113.6 129.92 93.79 93.9 C80.89 80.44 65 67.58 45.7 66.48 C40.06 66.44 34.92 67.08 29.25 67.75 C19.6 68.49 9.94 69.24 0 70 C0 46.9 0 23.8 0 0 Z " fill="#2864F0" transform="translate(287,134)"/>
<path d="M0 0 C4.34 1.66 7.23 4.96 10.43 8.19 C11.07 8.84 11.71 9.48 12.38 10.14 C14.53 12.3 16.68 14.46 18.83 16.62 C20.38 18.17 21.92 19.71 23.47 21.26 C26.79 24.59 30.12 27.92 33.44 31.26 C38.68 36.53 43.94 41.79 49.19 47.05 C57.5 55.37 65.8 63.69 74.1 72.01 C80.73 78.66 87.36 85.31 93.99 91.96 C94.69 92.66 94.69 92.66 95.41 93.37 C103.18 101.17 110.96 108.96 118.74 116.75 C123.96 121.98 129.19 127.22 134.41 132.46 C137.65 135.72 140.9 138.97 144.14 142.22 C145.65 143.73 147.16 145.25 148.67 146.76 C150.72 148.82 152.77 150.88 154.83 152.93 C155.43 153.54 156.03 154.15 156.65 154.77 C159.55 157.75 159.55 157.75 163 160 C163 160.66 163 161.32 163 162 C154.79 164.42 146.65 166.37 138.19 167.69 C137.42 167.81 136.66 167.93 135.88 168.05 C131.3 168.73 126.72 169.26 122.12 169.69 C119.82 169.92 117.53 170.17 115.24 170.45 C85.95 173.76 85.95 173.76 74.13 164.69 C68.41 159.93 63.35 154.49 58.35 149 C55.6 146.02 52.74 143.14 49.89 140.25 C44.55 134.8 39.3 129.26 34.09 123.68 C28.13 117.32 22.07 111.07 16.01 104.82 C3.55 91.99 -8.77 79.04 -21 66 C-20.01 65.5 -20.01 65.5 -19 65 C-17.13 65.84 -15.3 66.77 -13.5 67.75 C-3.93 72.66 4.28 74.38 15 75 C15 67.74 15 60.48 15 53 C12.03 53 9.06 53 6 53 C-5.3 50.09 -14.76 43.09 -20.82 33.17 C-22.45 30.17 -23.77 27.19 -25 24 C-25.35 23.29 -25.71 22.58 -26.07 21.85 C-27.35 17.92 -27.21 14.29 -27.12 10.19 C-27.12 9.4 -27.11 8.61 -27.1 7.8 C-27.07 5.87 -27.04 3.93 -27 2 C-22.78 5.43 -19.37 8.74 -16 13 C-12.83 12.42 -11.22 11.58 -8.98 9.28 C-8.46 8.74 -7.93 8.2 -7.38 7.65 C-6.84 7.08 -6.31 6.52 -5.75 5.94 C-5.2 5.37 -4.64 4.8 -4.07 4.22 C-2.71 2.82 -1.35 1.41 0 0 Z " fill="#2864F0" transform="translate(159,342)"/>
<path d="M0 0 C3.59 1.54 6.02 3.69 8.85 6.36 C9.32 6.81 9.79 7.26 10.28 7.72 C11.86 9.21 13.44 10.71 15.01 12.21 C16.14 13.29 17.28 14.36 18.41 15.44 C28.79 25.3 39.07 35.28 49.31 45.28 C56.19 51.99 63.09 58.67 70.09 65.26 C76.2 71.02 82.25 76.85 88.22 82.76 C91.38 85.87 94.56 88.95 97.82 91.96 C119.86 112.32 119.86 112.32 120.7 128.79 C120.85 136.93 120.03 144.93 119 153 C118.78 155.3 118.56 157.61 118.35 159.92 C117.17 172.82 114.1 185.45 111 198 C104.84 192.9 99.21 187.34 93.57 181.68 C92.53 180.64 91.5 179.61 90.46 178.57 C87.67 175.78 84.88 172.99 82.09 170.19 C79.17 167.26 76.24 164.33 73.32 161.41 C67.79 155.88 62.26 150.34 56.73 144.8 C50.44 138.5 44.14 132.19 37.84 125.89 C24.89 112.93 11.94 99.97 -1 87 C0.71 83.34 2.76 81.07 5.69 78.25 C8.69 75.36 11.53 72.42 14.24 69.27 C18.41 64.45 22.91 59.98 27.44 55.5 C28.26 54.68 29.09 53.86 29.94 53.01 C31.96 51 33.98 49 36 47 C32.73 43.17 29.45 39.35 26.12 35.56 C25.53 34.88 24.93 34.2 24.32 33.5 C23.88 33.01 23.45 32.51 23 32 C19.32 33.53 17.06 35.77 14.31 38.62 C12.89 40.1 11.46 41.56 10 43 C9.67 43 9.34 43 9 43 C8.99 41.81 8.97 40.63 8.96 39.41 C8.65 26.96 6.98 15.95 1.34 4.68 C0 2 0 2 0 0 Z " fill="#2864F0" transform="translate(393,125)"/>
<path d="M0 0 C35.64 0 71.28 0 108 0 C108 35.64 108 71.28 108 108 C103.93 104.51 100.08 101.21 96.32 97.45 C95.46 96.59 94.6 95.74 93.72 94.85 C92.8 93.93 91.88 93.01 90.93 92.06 C89.94 91.07 88.94 90.07 87.95 89.08 C85.26 86.4 82.58 83.71 79.9 81.03 C77.08 78.22 74.27 75.41 71.46 72.6 C66.74 67.88 62.03 63.17 57.32 58.45 C51.87 52.99 46.41 47.54 40.95 42.08 C36.26 37.4 31.57 32.71 26.89 28.02 C24.09 25.22 21.29 22.42 18.49 19.63 C15.86 17 13.24 14.38 10.62 11.75 C9.19 10.32 7.76 8.89 6.33 7.47 C5.49 6.62 4.65 5.78 3.79 4.91 C3.05 4.18 2.32 3.44 1.56 2.68 C0 1 0 1 0 0 Z " fill="#2864F0" transform="translate(133,289)"/>
<path d="M0 0 C5.15 4.31 9.96 8.82 14.68 13.59 C15.38 14.29 16.08 14.99 16.81 15.71 C19.02 17.93 21.23 20.15 23.44 22.38 C24.95 23.89 26.46 25.4 27.97 26.92 C31.65 30.61 35.32 34.3 39 38 C36.97 42.2 34.39 45.01 31.12 48.31 C30.6 48.88 30.07 49.44 29.52 50.02 C27.95 51.61 27.95 51.61 25 54 C20.7 53.56 18.99 51.12 16.25 47.94 C15.45 47.02 14.65 46.1 13.83 45.15 C13.22 44.44 12.62 43.73 12 43 C11.58 52.49 11.34 60.44 16 69 C16.41 69.84 16.82 70.68 17.25 71.55 C22.56 81.5 30.6 86.85 40.85 91.09 C44.91 92.36 44.91 92.36 53 93 C53 100.26 53 107.52 53 115 C35.89 116.06 22.44 109.59 9.69 98.56 C-3.44 86.24 -9.83 70.65 -11.19 52.88 C-11.27 51.92 -11.35 50.96 -11.44 49.98 C-11.63 47.65 -11.82 45.33 -12 43 C-15.63 46.63 -19.26 50.26 -23 54 C-26.36 52.32 -27.67 51.57 -30.02 48.96 C-30.54 48.38 -31.07 47.8 -31.62 47.2 C-32.16 46.6 -32.69 46 -33.25 45.38 C-33.8 44.76 -34.36 44.15 -34.93 43.52 C-36.29 42.02 -37.65 40.51 -39 39 C-33.68 32.49 -27.77 26.62 -21.82 20.69 C-20.07 18.94 -18.32 17.19 -16.56 15.43 C-11.21 10.07 -5.87 4.8 0 0 Z " fill="#C9F5F7" transform="translate(121,302)"/>
<path d="M0 0 C17.43 0 32.83 6.1 45.69 18.12 C57.55 30.61 63.96 46.46 64.62 63.5 C64.66 64.32 64.7 65.14 64.74 65.99 C64.84 67.99 64.92 70 65 72 C68.63 68.37 72.26 64.74 76 61 C79.36 62.68 80.67 63.43 83.02 66.04 C83.81 66.91 83.81 66.91 84.62 67.8 C85.16 68.4 85.69 69 86.25 69.62 C86.8 70.24 87.36 70.85 87.93 71.48 C89.29 72.98 90.65 74.49 92 76 C86.69 82.49 80.8 88.38 74.88 94.31 C73.13 96.06 71.39 97.81 69.65 99.57 C68.52 100.71 67.39 101.84 66.26 102.97 C65.75 103.49 65.24 104 64.72 104.54 C60.68 108.55 56.67 111.5 52 115 C39.46 102.46 26.92 89.92 14 77 C15.65 73.71 16.55 72.2 19.04 69.77 C19.62 69.19 20.2 68.62 20.8 68.03 C21.4 67.44 22 66.85 22.62 66.25 C23.24 65.65 23.85 65.05 24.48 64.43 C25.98 62.95 27.49 61.47 29 60 C33.52 63.72 37.31 67.45 41 72 C41.69 56.64 39.44 46 29 34 C20.97 26.09 10.94 23.22 0 22 C0 14.74 0 7.48 0 0 Z " fill="#B2F3F0" transform="translate(338,95)"/>
<path d="M0 0 C7.88 6.75 7.88 6.75 11.28 10.15 C12.04 10.91 12.8 11.67 13.59 12.45 C14.78 13.64 14.78 13.64 16 14.86 C17.25 16.11 17.25 16.11 18.52 17.39 C20.27 19.13 22.02 20.88 23.76 22.63 C26.45 25.32 29.14 28.01 31.83 30.7 C33.53 32.4 35.23 34.1 36.93 35.8 C37.74 36.61 38.55 37.42 39.39 38.25 C40.12 38.99 40.86 39.73 41.62 40.49 C42.28 41.15 42.93 41.8 43.6 42.48 C45 44 45 44 45 45 C30.15 45 15.3 45 0 45 C0 30.15 0 15.3 0 0 Z " fill="#DBE1EB" transform="translate(241,88)"/>
<path d="M0 0 C9.01 -1.08 17.3 2.83 24.66 7.79 C31.93 13.84 37.48 21.85 40 31 C40.23 34.01 40.09 36.98 40 40 C34.78 35.63 29.9 31.05 25.1 26.23 C24.38 25.51 23.65 24.79 22.91 24.04 C21.4 22.53 19.88 21.02 18.37 19.5 C16.05 17.17 13.72 14.85 11.39 12.53 C9.92 11.05 8.44 9.58 6.97 8.11 C6.27 7.41 5.57 6.71 4.85 5.99 C3.89 5.03 3.89 5.03 2.92 4.05 C2.35 3.48 1.79 2.92 1.21 2.33 C0 1 0 1 0 0 Z " fill="#2966F0" transform="translate(339,117)"/>
<path d="M0 0 C0.66 8.91 1.32 17.82 2 27 C-6.68 19.56 -6.68 19.56 -9 17.38 C-9.6 16.83 -10.2 16.28 -10.81 15.71 C-12 14 -12 14 -12 12.12 C-10.55 9.05 -8.42 7.1 -6 4.75 C-5.09 3.86 -4.19 2.97 -3.25 2.05 C-1 0 -1 0 0 0 Z " fill="#2D68F0" transform="translate(110,344)"/>
</svg>
